<svg xmlns="http://www.w3.org/2000/svg" viewBox="0 0 460 96" preserveAspectRatio="none">
  <defs>
    <radialGradient id="fsShade" cx="0.4" cy="0.32" r="0.85">
      <stop offset="0" stop-color="#ffffff" stop-opacity="0.3"/>
      <stop offset="0.6" stop-color="#ffffff" stop-opacity="0"/>
      <stop offset="1" stop-color="#4a5357" stop-opacity="0.3"/>
    </radialGradient>
    <filter id="fsGrain" x="0" y="0" width="100%" height="100%">
      <feTurbulence type="fractalNoise" baseFrequency="0.8" numOctaves="3"/>
      <feColorMatrix type="matrix" values="0 0 0 0 0.35  0 0 0 0 0.38  0 0 0 0 0.4  0 0 0 0.22 0"/>
    </filter>
  </defs>
  <rect width="460" height="96" fill="#757d81"/>
  <path d="M5.6 1.1L26.5 1.1Q29.8 1.1 33.2 1.1L54.1 1.1Q57.4 1.1 60.0 1.2L76.6 1.5Q79.3 1.5 81.9 1.5L98.5 1.2Q101.1 1.1 100.3 4.0L94.7 22.2Q93.8 25.0 94.0 28.0L95.5 47.0Q95.7 50.0 92.9 50.0L74.7 50.2Q71.8 50.2 69.0 49.7L51.2 46.3Q48.4 45.7 45.6 45.7L27.9 45.3Q25.1 45.2 22.4 45.7L5.0 49.2Q2.3 49.7 2.3 46.8L2.3 28.3Q2.3 25.4 2.3 22.5L2.3 4.0Q2.3 1.1 5.6 1.1Z" fill="#c6cbce"/>
  <path d="M5.6 1.1L26.5 1.1Q29.8 1.1 33.2 1.1L54.1 1.1Q57.4 1.1 60.0 1.2L76.6 1.5Q79.3 1.5 81.9 1.5L98.5 1.2Q101.1 1.1 100.3 4.0L94.7 22.2Q93.8 25.0 94.0 28.0L95.5 47.0Q95.7 50.0 92.9 50.0L74.7 50.2Q71.8 50.2 69.0 49.7L51.2 46.3Q48.4 45.7 45.6 45.7L27.9 45.3Q25.1 45.2 22.4 45.7L5.0 49.2Q2.3 49.7 2.3 46.8L2.3 28.3Q2.3 25.4 2.3 22.5L2.3 4.0Q2.3 1.1 5.6 1.1Z" fill="url(#fsShade)"/>
  <path d="M5.6 1.1L26.5 1.1Q29.8 1.1 33.2 1.1L54.1 1.1Q57.4 1.1 60.0 1.2L76.6 1.5Q79.3 1.5 81.9 1.5L98.5 1.2Q101.1 1.1 100.3 4.0L94.7 22.2Q93.8 25.0 94.0 28.0L95.5 47.0Q95.7 50.0 92.9 50.0L74.7 50.2Q71.8 50.2 69.0 49.7L51.2 46.3Q48.4 45.7 45.6 45.7L27.9 45.3Q25.1 45.2 22.4 45.7L5.0 49.2Q2.3 49.7 2.3 46.8L2.3 28.3Q2.3 25.4 2.3 22.5L2.3 4.0Q2.3 1.1 5.6 1.1Z" fill="none" stroke="#6e767a" stroke-width="1.6" opacity="0.45"/>
  <path d="M5.6 1.1L26.5 1.1Q29.8 1.1 33.2 1.1L54.1 1.1Q57.4 1.1 60.0 1.2L76.6 1.5Q79.3 1.5 81.9 1.5L98.5 1.2Q101.1 1.1 100.3 4.0L94.7 22.2Q93.8 25.0 94.0 28.0L95.5 47.0Q95.7 50.0 92.9 50.0L74.7 50.2Q71.8 50.2 69.0 49.7L51.2 46.3Q48.4 45.7 45.6 45.7L27.9 45.3Q25.1 45.2 22.4 45.7L5.0 49.2Q2.3 49.7 2.3 46.8L2.3 28.3Q2.3 25.4 2.3 22.5L2.3 4.0Q2.3 1.1 5.6 1.1Z" fill="none" stroke="#f2f4f5" stroke-width="0.9" opacity="0.6"/>
  <path d="M75.0 5.0Q38.0 25.6 9.6 46.0" fill="none" stroke="#9aa2a6" stroke-width="0.8" opacity="0.31"/>
  <path d="M56.4 4.7Q42.0 20.3 29.0 42.1" fill="none" stroke="#9aa2a6" stroke-width="0.8" opacity="0.42"/>
  <path d="M107.0 1.1L122.9 1.1Q125.4 1.1 128.0 1.1L143.9 1.1Q146.4 1.1 146.3 3.6L145.4 19.9Q145.3 22.5 146.0 25.0L150.5 40.7Q151.2 43.1 148.1 43.7L128.3 47.1Q125.2 47.6 122.1 47.9L102.2 49.7Q99.0 50.0 98.8 47.0L97.3 28.0Q97.1 25.0 98.0 22.1L103.6 3.9Q104.4 1.1 107.0 1.1Z" fill="#dcdfe1"/>
  <path d="M107.0 1.1L122.9 1.1Q125.4 1.1 128.0 1.1L143.9 1.1Q146.4 1.1 146.3 3.6L145.4 19.9Q145.3 22.5 146.0 25.0L150.5 40.7Q151.2 43.1 148.1 43.7L128.3 47.1Q125.2 47.6 122.1 47.9L102.2 49.7Q99.0 50.0 98.8 47.0L97.3 28.0Q97.1 25.0 98.0 22.1L103.6 3.9Q104.4 1.1 107.0 1.1Z" fill="url(#fsShade)"/>
  <path d="M107.0 1.1L122.9 1.1Q125.4 1.1 128.0 1.1L143.9 1.1Q146.4 1.1 146.3 3.6L145.4 19.9Q145.3 22.5 146.0 25.0L150.5 40.7Q151.2 43.1 148.1 43.7L128.3 47.1Q125.2 47.6 122.1 47.9L102.2 49.7Q99.0 50.0 98.8 47.0L97.3 28.0Q97.1 25.0 98.0 22.1L103.6 3.9Q104.4 1.1 107.0 1.1Z" fill="none" stroke="#6e767a" stroke-width="1.6" opacity="0.45"/>
  <path d="M107.0 1.1L122.9 1.1Q125.4 1.1 128.0 1.1L143.9 1.1Q146.4 1.1 146.3 3.6L145.4 19.9Q145.3 22.5 146.0 25.0L150.5 40.7Q151.2 43.1 148.1 43.7L128.3 47.1Q125.2 47.6 122.1 47.9L102.2 49.7Q99.0 50.0 98.8 47.0L97.3 28.0Q97.1 25.0 98.0 22.1L103.6 3.9Q104.4 1.1 107.0 1.1Z" fill="none" stroke="#f2f4f5" stroke-width="0.9" opacity="0.6"/>
  <path d="M102.8 46.1Q123.8 49.2 147.1 40.2" fill="none" stroke="#9aa2a6" stroke-width="0.8" opacity="0.54"/>
  <path d="M102.8 46.1Q100.6 37.5 101.2 24.8" fill="none" stroke="#9aa2a6" stroke-width="0.8" opacity="0.53"/>
  <path d="M151.5 1.4L169.0 3.6Q171.7 3.9 174.5 3.6L191.9 1.4Q194.7 1.0 195.9 3.6L203.8 20.0Q205.1 22.6 205.4 25.5L207.4 43.6Q207.7 46.4 204.5 46.1L184.0 43.7Q180.7 43.3 177.4 43.3L156.8 43.1Q153.5 43.1 152.8 40.6L148.3 24.9Q147.6 22.5 147.8 19.9L148.6 3.6Q148.8 1.0 151.5 1.4Z" fill="#dcdfe1"/>
  <path d="M151.5 1.4L169.0 3.6Q171.7 3.9 174.5 3.6L191.9 1.4Q194.7 1.0 195.9 3.6L203.8 20.0Q205.1 22.6 205.4 25.5L207.4 43.6Q207.7 46.4 204.5 46.1L184.0 43.7Q180.7 43.3 177.4 43.3L156.8 43.1Q153.5 43.1 152.8 40.6L148.3 24.9Q147.6 22.5 147.8 19.9L148.6 3.6Q148.8 1.0 151.5 1.4Z" fill="url(#fsShade)"/>
  <path d="M151.5 1.4L169.0 3.6Q171.7 3.9 174.5 3.6L191.9 1.4Q194.7 1.0 195.9 3.6L203.8 20.0Q205.1 22.6 205.4 25.5L207.4 43.6Q207.7 46.4 204.5 46.1L184.0 43.7Q180.7 43.3 177.4 43.3L156.8 43.1Q153.5 43.1 152.8 40.6L148.3 24.9Q147.6 22.5 147.8 19.9L148.6 3.6Q148.8 1.0 151.5 1.4Z" fill="none" stroke="#6e767a" stroke-width="1.6" opacity="0.45"/>
  <path d="M151.5 1.4L169.0 3.6Q171.7 3.9 174.5 3.6L191.9 1.4Q194.7 1.0 195.9 3.6L203.8 20.0Q205.1 22.6 205.4 25.5L207.4 43.6Q207.7 46.4 204.5 46.1L184.0 43.7Q180.7 43.3 177.4 43.3L156.8 43.1Q153.5 43.1 152.8 40.6L148.3 24.9Q147.6 22.5 147.8 19.9L148.6 3.6Q148.8 1.0 151.5 1.4Z" fill="none" stroke="#f2f4f5" stroke-width="0.9" opacity="0.6"/>
  <path d="M152.9 4.3Q148.5 10.3 151.9 22.5" fill="none" stroke="#9aa2a6" stroke-width="0.8" opacity="0.38"/>
  <path d="M201.6 1.1L222.9 1.1Q226.2 1.1 229.6 1.1L250.9 1.1Q254.2 1.1 257.0 1.4L274.2 3.6Q276.9 3.9 279.6 3.6L296.9 1.4Q299.6 1.1 300.0 3.9L302.5 21.4Q302.9 24.2 302.3 26.9L299.1 44.3Q298.6 47.1 296.2 47.5L281.2 50.3Q278.8 50.7 276.4 50.5L261.2 48.8Q258.8 48.5 256.0 48.0L238.0 44.7Q235.2 44.2 232.3 44.5L214.1 46.2Q211.2 46.5 210.9 43.6L208.9 25.6Q208.6 22.7 207.3 20.1L199.4 3.7Q198.2 1.1 201.6 1.1Z" fill="#c6cbce"/>
  <path d="M201.6 1.1L222.9 1.1Q226.2 1.1 229.6 1.1L250.9 1.1Q254.2 1.1 257.0 1.4L274.2 3.6Q276.9 3.9 279.6 3.6L296.9 1.4Q299.6 1.1 300.0 3.9L302.5 21.4Q302.9 24.2 302.3 26.9L299.1 44.3Q298.6 47.1 296.2 47.5L281.2 50.3Q278.8 50.7 276.4 50.5L261.2 48.8Q258.8 48.5 256.0 48.0L238.0 44.7Q235.2 44.2 232.3 44.5L214.1 46.2Q211.2 46.5 210.9 43.6L208.9 25.6Q208.6 22.7 207.3 20.1L199.4 3.7Q198.2 1.1 201.6 1.1Z" fill="url(#fsShade)"/>
  <path d="M201.6 1.1L222.9 1.1Q226.2 1.1 229.6 1.1L250.9 1.1Q254.2 1.1 257.0 1.4L274.2 3.6Q276.9 3.9 279.6 3.6L296.9 1.4Q299.6 1.1 300.0 3.9L302.5 21.4Q302.9 24.2 302.3 26.9L299.1 44.3Q298.6 47.1 296.2 47.5L281.2 50.3Q278.8 50.7 276.4 50.5L261.2 48.8Q258.8 48.5 256.0 48.0L238.0 44.7Q235.2 44.2 232.3 44.5L214.1 46.2Q211.2 46.5 210.9 43.6L208.9 25.6Q208.6 22.7 207.3 20.1L199.4 3.7Q198.2 1.1 201.6 1.1Z" fill="none" stroke="#6e767a" stroke-width="1.6" opacity="0.45"/>
  <path d="M201.6 1.1L222.9 1.1Q226.2 1.1 229.6 1.1L250.9 1.1Q254.2 1.1 257.0 1.4L274.2 3.6Q276.9 3.9 279.6 3.6L296.9 1.4Q299.6 1.1 300.0 3.9L302.5 21.4Q302.9 24.2 302.3 26.9L299.1 44.3Q298.6 47.1 296.2 47.5L281.2 50.3Q278.8 50.7 276.4 50.5L261.2 48.8Q258.8 48.5 256.0 48.0L238.0 44.7Q235.2 44.2 232.3 44.5L214.1 46.2Q211.2 46.5 210.9 43.6L208.9 25.6Q208.6 22.7 207.3 20.1L199.4 3.7Q198.2 1.1 201.6 1.1Z" fill="none" stroke="#f2f4f5" stroke-width="0.9" opacity="0.6"/>
  <path d="M295.5 24.2Q247.3 9.0 206.6 4.6" fill="none" stroke="#9aa2a6" stroke-width="0.8" opacity="0.38"/>
  <path d="M258.1 44.9Q235.3 34.6 215.4 22.9" fill="none" stroke="#9aa2a6" stroke-width="0.8" opacity="0.44"/>
  <path d="M307.5 1.4L329.1 3.0Q332.6 3.3 336.0 3.0L357.6 1.4Q361.1 1.2 363.8 1.4L381.4 3.0Q384.2 3.2 386.9 3.0L404.5 1.4Q407.3 1.2 406.5 4.4L401.1 24.6Q400.3 27.8 399.9 31.1L397.4 51.9Q397.0 55.1 393.9 55.1L374.1 55.0Q371.0 55.0 368.0 54.0L349.2 48.0Q346.2 47.0 343.7 47.1L327.2 47.2Q324.7 47.2 322.1 47.2L305.7 47.2Q303.1 47.2 303.6 44.4L306.8 27.0Q307.3 24.2 306.9 21.5L304.5 3.9Q304.1 1.2 307.5 1.4Z" fill="#cbd0d2"/>
  <path d="M307.5 1.4L329.1 3.0Q332.6 3.3 336.0 3.0L357.6 1.4Q361.1 1.2 363.8 1.4L381.4 3.0Q384.2 3.2 386.9 3.0L404.5 1.4Q407.3 1.2 406.5 4.4L401.1 24.6Q400.3 27.8 399.9 31.1L397.4 51.9Q397.0 55.1 393.9 55.1L374.1 55.0Q371.0 55.0 368.0 54.0L349.2 48.0Q346.2 47.0 343.7 47.1L327.2 47.2Q324.7 47.2 322.1 47.2L305.7 47.2Q303.1 47.2 303.6 44.4L306.8 27.0Q307.3 24.2 306.9 21.5L304.5 3.9Q304.1 1.2 307.5 1.4Z" fill="url(#fsShade)"/>
  <path d="M307.5 1.4L329.1 3.0Q332.6 3.3 336.0 3.0L357.6 1.4Q361.1 1.2 363.8 1.4L381.4 3.0Q384.2 3.2 386.9 3.0L404.5 1.4Q407.3 1.2 406.5 4.4L401.1 24.6Q400.3 27.8 399.9 31.1L397.4 51.9Q397.0 55.1 393.9 55.1L374.1 55.0Q371.0 55.0 368.0 54.0L349.2 48.0Q346.2 47.0 343.7 47.1L327.2 47.2Q324.7 47.2 322.1 47.2L305.7 47.2Q303.1 47.2 303.6 44.4L306.8 27.0Q307.3 24.2 306.9 21.5L304.5 3.9Q304.1 1.2 307.5 1.4Z" fill="none" stroke="#6e767a" stroke-width="1.6" opacity="0.45"/>
  <path d="M307.5 1.4L329.1 3.0Q332.6 3.3 336.0 3.0L357.6 1.4Q361.1 1.2 363.8 1.4L381.4 3.0Q384.2 3.2 386.9 3.0L404.5 1.4Q407.3 1.2 406.5 4.4L401.1 24.6Q400.3 27.8 399.9 31.1L397.4 51.9Q397.0 55.1 393.9 55.1L374.1 55.0Q371.0 55.0 368.0 54.0L349.2 48.0Q346.2 47.0 343.7 47.1L327.2 47.2Q324.7 47.2 322.1 47.2L305.7 47.2Q303.1 47.2 303.6 44.4L306.8 27.0Q307.3 24.2 306.9 21.5L304.5 3.9Q304.1 1.2 307.5 1.4Z" fill="none" stroke="#f2f4f5" stroke-width="0.9" opacity="0.6"/>
  <path d="M393.3 27.6Q358.4 23.0 314.2 24.5" fill="none" stroke="#9aa2a6" stroke-width="0.8" opacity="0.32"/>
  <path d="M413.7 1.3L431.9 1.3Q434.8 1.3 437.7 1.3L455.9 1.3Q458.7 1.3 458.7 4.5L458.7 25.0Q458.7 28.2 458.7 31.5L458.7 51.9Q458.7 55.2 455.2 55.6L433.1 58.6Q429.7 59.0 426.2 58.6L404.1 55.7Q400.6 55.3 401.0 52.0L403.5 31.2Q403.9 27.9 404.7 24.7L410.0 4.5Q410.8 1.3 413.7 1.3Z" fill="#e0e3e4"/>
  <path d="M413.7 1.3L431.9 1.3Q434.8 1.3 437.7 1.3L455.9 1.3Q458.7 1.3 458.7 4.5L458.7 25.0Q458.7 28.2 458.7 31.5L458.7 51.9Q458.7 55.2 455.2 55.6L433.1 58.6Q429.7 59.0 426.2 58.6L404.1 55.7Q400.6 55.3 401.0 52.0L403.5 31.2Q403.9 27.9 404.7 24.7L410.0 4.5Q410.8 1.3 413.7 1.3Z" fill="url(#fsShade)"/>
  <path d="M413.7 1.3L431.9 1.3Q434.8 1.3 437.7 1.3L455.9 1.3Q458.7 1.3 458.7 4.5L458.7 25.0Q458.7 28.2 458.7 31.5L458.7 51.9Q458.7 55.2 455.2 55.6L433.1 58.6Q429.7 59.0 426.2 58.6L404.1 55.7Q400.6 55.3 401.0 52.0L403.5 31.2Q403.9 27.9 404.7 24.7L410.0 4.5Q410.8 1.3 413.7 1.3Z" fill="none" stroke="#6e767a" stroke-width="1.6" opacity="0.45"/>
  <path d="M413.7 1.3L431.9 1.3Q434.8 1.3 437.7 1.3L455.9 1.3Q458.7 1.3 458.7 4.5L458.7 25.0Q458.7 28.2 458.7 31.5L458.7 51.9Q458.7 55.2 455.2 55.6L433.1 58.6Q429.7 59.0 426.2 58.6L404.1 55.7Q400.6 55.3 401.0 52.0L403.5 31.2Q403.9 27.9 404.7 24.7L410.0 4.5Q410.8 1.3 413.7 1.3Z" fill="none" stroke="#f2f4f5" stroke-width="0.9" opacity="0.6"/>
  <path d="M405.3 51.3Q429.0 52.4 454.7 51.2" fill="none" stroke="#9aa2a6" stroke-width="0.8" opacity="0.40"/>
  <path d="M430.0 54.5Q414.6 41.6 408.1 28.0" fill="none" stroke="#9aa2a6" stroke-width="0.8" opacity="0.32"/>
  <path d="M3.8 51.3L21.2 47.9Q23.9 47.3 26.7 47.4L44.4 47.8Q47.2 47.8 47.3 50.7L48.3 68.7Q48.4 71.5 48.0 74.3L45.0 92.1Q44.5 94.9 41.9 94.5L25.4 91.9Q22.8 91.5 20.2 91.9L3.7 94.5Q1.1 94.9 1.1 92.3L1.1 75.9Q1.1 73.4 1.1 70.8L1.1 54.4Q1.1 51.8 3.8 51.3Z" fill="#d7dbdd"/>
  <path d="M3.8 51.3L21.2 47.9Q23.9 47.3 26.7 47.4L44.4 47.8Q47.2 47.8 47.3 50.7L48.3 68.7Q48.4 71.5 48.0 74.3L45.0 92.1Q44.5 94.9 41.9 94.5L25.4 91.9Q22.8 91.5 20.2 91.9L3.7 94.5Q1.1 94.9 1.1 92.3L1.1 75.9Q1.1 73.4 1.1 70.8L1.1 54.4Q1.1 51.8 3.8 51.3Z" fill="url(#fsShade)"/>
  <path d="M3.8 51.3L21.2 47.9Q23.9 47.3 26.7 47.4L44.4 47.8Q47.2 47.8 47.3 50.7L48.3 68.7Q48.4 71.5 48.0 74.3L45.0 92.1Q44.5 94.9 41.9 94.5L25.4 91.9Q22.8 91.5 20.2 91.9L3.7 94.5Q1.1 94.9 1.1 92.3L1.1 75.9Q1.1 73.4 1.1 70.8L1.1 54.4Q1.1 51.8 3.8 51.3Z" fill="none" stroke="#6e767a" stroke-width="1.6" opacity="0.45"/>
  <path d="M3.8 51.3L21.2 47.9Q23.9 47.3 26.7 47.4L44.4 47.8Q47.2 47.8 47.3 50.7L48.3 68.7Q48.4 71.5 48.0 74.3L45.0 92.1Q44.5 94.9 41.9 94.5L25.4 91.9Q22.8 91.5 20.2 91.9L3.7 94.5Q1.1 94.9 1.1 92.3L1.1 75.9Q1.1 73.4 1.1 70.8L1.1 54.4Q1.1 51.8 3.8 51.3Z" fill="none" stroke="#f2f4f5" stroke-width="0.9" opacity="0.6"/>
  <path d="M41.4 91.4Q35.0 73.3 23.9 51.0" fill="none" stroke="#9aa2a6" stroke-width="0.8" opacity="0.48"/>
  <path d="M4.5 73.1Q4.3 60.9 4.5 54.8" fill="none" stroke="#9aa2a6" stroke-width="0.8" opacity="0.52"/>
  <path d="M52.1 48.4L70.0 51.9Q72.8 52.4 75.6 52.4L93.8 52.2Q96.7 52.2 96.4 54.7L94.9 71.0Q94.7 73.5 94.5 76.1L93.4 92.4Q93.2 95.0 90.4 95.0L72.7 95.0Q69.9 95.0 67.1 95.0L49.5 95.0Q46.7 95.0 47.1 92.1L50.1 74.4Q50.6 71.6 50.4 68.7L49.5 50.7Q49.3 47.9 52.1 48.4Z" fill="#c6cbce"/>
  <path d="M52.1 48.4L70.0 51.9Q72.8 52.4 75.6 52.4L93.8 52.2Q96.7 52.2 96.4 54.7L94.9 71.0Q94.7 73.5 94.5 76.1L93.4 92.4Q93.2 95.0 90.4 95.0L72.7 95.0Q69.9 95.0 67.1 95.0L49.5 95.0Q46.7 95.0 47.1 92.1L50.1 74.4Q50.6 71.6 50.4 68.7L49.5 50.7Q49.3 47.9 52.1 48.4Z" fill="url(#fsShade)"/>
  <path d="M52.1 48.4L70.0 51.9Q72.8 52.4 75.6 52.4L93.8 52.2Q96.7 52.2 96.4 54.7L94.9 71.0Q94.7 73.5 94.5 76.1L93.4 92.4Q93.2 95.0 90.4 95.0L72.7 95.0Q69.9 95.0 67.1 95.0L49.5 95.0Q46.7 95.0 47.1 92.1L50.1 74.4Q50.6 71.6 50.4 68.7L49.5 50.7Q49.3 47.9 52.1 48.4Z" fill="none" stroke="#6e767a" stroke-width="1.6" opacity="0.45"/>
  <path d="M52.1 48.4L70.0 51.9Q72.8 52.4 75.6 52.4L93.8 52.2Q96.7 52.2 96.4 54.7L94.9 71.0Q94.7 73.5 94.5 76.1L93.4 92.4Q93.2 95.0 90.4 95.0L72.7 95.0Q69.9 95.0 67.1 95.0L49.5 95.0Q46.7 95.0 47.1 92.1L50.1 74.4Q50.6 71.6 50.4 68.7L49.5 50.7Q49.3 47.9 52.1 48.4Z" fill="none" stroke="#f2f4f5" stroke-width="0.9" opacity="0.6"/>
  <path d="M91.3 73.4Q85.7 59.8 72.6 55.5" fill="none" stroke="#9aa2a6" stroke-width="0.8" opacity="0.32"/>
  <path d="M52.7 51.6Q65.7 47.6 72.6 55.5" fill="none" stroke="#9aa2a6" stroke-width="0.8" opacity="0.50"/>
  <path d="M102.1 51.8L122.0 50.0Q125.1 49.8 128.3 49.2L148.0 45.8Q151.1 45.3 150.3 48.2L145.1 66.7Q144.3 69.6 144.4 72.7L145.0 91.9Q145.1 94.9 142.2 94.6L123.3 92.6Q120.3 92.2 117.3 92.6L98.4 94.6Q95.5 94.9 95.6 92.3L96.8 76.1Q97.0 73.5 97.2 70.9L98.7 54.7Q98.9 52.1 102.1 51.8Z" fill="#dcdfe1"/>
  <path d="M102.1 51.8L122.0 50.0Q125.1 49.8 128.3 49.2L148.0 45.8Q151.1 45.3 150.3 48.2L145.1 66.7Q144.3 69.6 144.4 72.7L145.0 91.9Q145.1 94.9 142.2 94.6L123.3 92.6Q120.3 92.2 117.3 92.6L98.4 94.6Q95.5 94.9 95.6 92.3L96.8 76.1Q97.0 73.5 97.2 70.9L98.7 54.7Q98.9 52.1 102.1 51.8Z" fill="url(#fsShade)"/>
  <path d="M102.1 51.8L122.0 50.0Q125.1 49.8 128.3 49.2L148.0 45.8Q151.1 45.3 150.3 48.2L145.1 66.7Q144.3 69.6 144.4 72.7L145.0 91.9Q145.1 94.9 142.2 94.6L123.3 92.6Q120.3 92.2 117.3 92.6L98.4 94.6Q95.5 94.9 95.6 92.3L96.8 76.1Q97.0 73.5 97.2 70.9L98.7 54.7Q98.9 52.1 102.1 51.8Z" fill="none" stroke="#6e767a" stroke-width="1.6" opacity="0.45"/>
  <path d="M102.1 51.8L122.0 50.0Q125.1 49.8 128.3 49.2L148.0 45.8Q151.1 45.3 150.3 48.2L145.1 66.7Q144.3 69.6 144.4 72.7L145.0 91.9Q145.1 94.9 142.2 94.6L123.3 92.6Q120.3 92.2 117.3 92.6L98.4 94.6Q95.5 94.9 95.6 92.3L96.8 76.1Q97.0 73.5 97.2 70.9L98.7 54.7Q98.9 52.1 102.1 51.8Z" fill="none" stroke="#f2f4f5" stroke-width="0.9" opacity="0.6"/>
  <path d="M124.7 53.0Q139.0 75.5 141.7 91.4" fill="none" stroke="#9aa2a6" stroke-width="0.8" opacity="0.48"/>
  <path d="M156.8 45.2L177.5 45.4Q180.7 45.4 184.0 45.8L204.5 48.2Q207.8 48.6 207.0 51.3L202.0 68.5Q201.2 71.2 201.4 74.1L202.5 92.0Q202.7 94.8 199.4 94.2L178.5 90.0Q175.2 89.3 171.9 90.0L150.9 94.2Q147.6 94.8 147.5 91.8L146.9 72.6Q146.8 69.6 147.6 66.6L152.7 48.1Q153.5 45.2 156.8 45.2Z" fill="#cbd0d2"/>
  <path d="M156.8 45.2L177.5 45.4Q180.7 45.4 184.0 45.8L204.5 48.2Q207.8 48.6 207.0 51.3L202.0 68.5Q201.2 71.2 201.4 74.1L202.5 92.0Q202.7 94.8 199.4 94.2L178.5 90.0Q175.2 89.3 171.9 90.0L150.9 94.2Q147.6 94.8 147.5 91.8L146.9 72.6Q146.8 69.6 147.6 66.6L152.7 48.1Q153.5 45.2 156.8 45.2Z" fill="url(#fsShade)"/>
  <path d="M156.8 45.2L177.5 45.4Q180.7 45.4 184.0 45.8L204.5 48.2Q207.8 48.6 207.0 51.3L202.0 68.5Q201.2 71.2 201.4 74.1L202.5 92.0Q202.7 94.8 199.4 94.2L178.5 90.0Q175.2 89.3 171.9 90.0L150.9 94.2Q147.6 94.8 147.5 91.8L146.9 72.6Q146.8 69.6 147.6 66.6L152.7 48.1Q153.5 45.2 156.8 45.2Z" fill="none" stroke="#6e767a" stroke-width="1.6" opacity="0.45"/>
  <path d="M156.8 45.2L177.5 45.4Q180.7 45.4 184.0 45.8L204.5 48.2Q207.8 48.6 207.0 51.3L202.0 68.5Q201.2 71.2 201.4 74.1L202.5 92.0Q202.7 94.8 199.4 94.2L178.5 90.0Q175.2 89.3 171.9 90.0L150.9 94.2Q147.6 94.8 147.5 91.8L146.9 72.6Q146.8 69.6 147.6 66.6L152.7 48.1Q153.5 45.2 156.8 45.2Z" fill="none" stroke="#f2f4f5" stroke-width="0.9" opacity="0.6"/>
  <path d="M151.3 69.6Q150.7 81.8 152.0 91.1" fill="none" stroke="#9aa2a6" stroke-width="0.8" opacity="0.47"/>
  <path d="M203.2 51.8Q198.6 43.1 180.2 49.1" fill="none" stroke="#9aa2a6" stroke-width="0.8" opacity="0.32"/>
  <path d="M213.2 48.4L231.4 46.6Q234.3 46.3 237.1 46.8L255.1 50.1Q257.9 50.6 257.9 53.4L258.0 70.8Q258.0 73.5 259.0 76.1L265.2 92.3Q266.2 94.9 262.6 94.8L239.4 94.1Q235.8 94.0 232.1 94.1L208.9 94.8Q205.3 94.9 205.1 92.1L204.0 74.2Q203.8 71.3 204.6 68.6L209.6 51.4Q210.3 48.6 213.2 48.4Z" fill="#dcdfe1"/>
  <path d="M213.2 48.4L231.4 46.6Q234.3 46.3 237.1 46.8L255.1 50.1Q257.9 50.6 257.9 53.4L258.0 70.8Q258.0 73.5 259.0 76.1L265.2 92.3Q266.2 94.9 262.6 94.8L239.4 94.1Q235.8 94.0 232.1 94.1L208.9 94.8Q205.3 94.9 205.1 92.1L204.0 74.2Q203.8 71.3 204.6 68.6L209.6 51.4Q210.3 48.6 213.2 48.4Z" fill="url(#fsShade)"/>
  <path d="M213.2 48.4L231.4 46.6Q234.3 46.3 237.1 46.8L255.1 50.1Q257.9 50.6 257.9 53.4L258.0 70.8Q258.0 73.5 259.0 76.1L265.2 92.3Q266.2 94.9 262.6 94.8L239.4 94.1Q235.8 94.0 232.1 94.1L208.9 94.8Q205.3 94.9 205.1 92.1L204.0 74.2Q203.8 71.3 204.6 68.6L209.6 51.4Q210.3 48.6 213.2 48.4Z" fill="none" stroke="#6e767a" stroke-width="1.6" opacity="0.45"/>
  <path d="M213.2 48.4L231.4 46.6Q234.3 46.3 237.1 46.8L255.1 50.1Q257.9 50.6 257.9 53.4L258.0 70.8Q258.0 73.5 259.0 76.1L265.2 92.3Q266.2 94.9 262.6 94.8L239.4 94.1Q235.8 94.0 232.1 94.1L208.9 94.8Q205.3 94.9 205.1 92.1L204.0 74.2Q203.8 71.3 204.6 68.6L209.6 51.4Q210.3 48.6 213.2 48.4Z" fill="none" stroke="#f2f4f5" stroke-width="0.9" opacity="0.6"/>
  <path d="M254.4 73.3Q243.2 58.5 234.2 50.1" fill="none" stroke="#9aa2a6" stroke-width="0.8" opacity="0.39"/>
  <path d="M262.5 51.0L277.7 52.6Q280.1 52.9 282.5 52.5L297.5 49.7Q299.9 49.3 300.0 52.0L300.7 69.4Q300.8 72.2 301.1 74.9L303.3 92.2Q303.6 95.0 301.5 95.0L288.1 94.9Q286.0 94.9 283.9 94.9L270.5 95.0Q268.4 95.0 267.4 92.4L261.1 76.2Q260.1 73.6 260.1 70.8L260.1 53.4Q260.1 50.7 262.5 51.0Z" fill="#d7dbdd"/>
  <path d="M262.5 51.0L277.7 52.6Q280.1 52.9 282.5 52.5L297.5 49.7Q299.9 49.3 300.0 52.0L300.7 69.4Q300.8 72.2 301.1 74.9L303.3 92.2Q303.6 95.0 301.5 95.0L288.1 94.9Q286.0 94.9 283.9 94.9L270.5 95.0Q268.4 95.0 267.4 92.4L261.1 76.2Q260.1 73.6 260.1 70.8L260.1 53.4Q260.1 50.7 262.5 51.0Z" fill="url(#fsShade)"/>
  <path d="M262.5 51.0L277.7 52.6Q280.1 52.9 282.5 52.5L297.5 49.7Q299.9 49.3 300.0 52.0L300.7 69.4Q300.8 72.2 301.1 74.9L303.3 92.2Q303.6 95.0 301.5 95.0L288.1 94.9Q286.0 94.9 283.9 94.9L270.5 95.0Q268.4 95.0 267.4 92.4L261.1 76.2Q260.1 73.6 260.1 70.8L260.1 53.4Q260.1 50.7 262.5 51.0Z" fill="none" stroke="#6e767a" stroke-width="1.6" opacity="0.45"/>
  <path d="M262.5 51.0L277.7 52.6Q280.1 52.9 282.5 52.5L297.5 49.7Q299.9 49.3 300.0 52.0L300.7 69.4Q300.8 72.2 301.1 74.9L303.3 92.2Q303.6 95.0 301.5 95.0L288.1 94.9Q286.0 94.9 283.9 94.9L270.5 95.0Q268.4 95.0 267.4 92.4L261.1 76.2Q260.1 73.6 260.1 70.8L260.1 53.4Q260.1 50.7 262.5 51.0Z" fill="none" stroke="#f2f4f5" stroke-width="0.9" opacity="0.6"/>
  <path d="M263.5 73.5Q258.4 60.2 263.4 54.0" fill="none" stroke="#9aa2a6" stroke-width="0.8" opacity="0.37"/>
  <path d="M263.5 73.5Q259.1 64.8 263.4 54.0" fill="none" stroke="#9aa2a6" stroke-width="0.8" opacity="0.48"/>
  <path d="M304.4 49.2L320.8 49.2Q323.4 49.2 326.0 49.2L342.4 49.1Q345.0 49.1 345.6 51.8L349.4 69.0Q350.0 71.8 350.2 74.5L351.6 92.1Q351.9 94.9 349.1 94.4L331.5 91.0Q328.7 90.5 325.9 91.0L308.4 94.4Q305.6 94.9 305.2 92.2L303.1 74.9Q302.8 72.1 302.7 69.4L302.0 51.9Q301.8 49.2 304.4 49.2Z" fill="#dcdfe1"/>
  <path d="M304.4 49.2L320.8 49.2Q323.4 49.2 326.0 49.2L342.4 49.1Q345.0 49.1 345.6 51.8L349.4 69.0Q350.0 71.8 350.2 74.5L351.6 92.1Q351.9 94.9 349.1 94.4L331.5 91.0Q328.7 90.5 325.9 91.0L308.4 94.4Q305.6 94.9 305.2 92.2L303.1 74.9Q302.8 72.1 302.7 69.4L302.0 51.9Q301.8 49.2 304.4 49.2Z" fill="url(#fsShade)"/>
  <path d="M304.4 49.2L320.8 49.2Q323.4 49.2 326.0 49.2L342.4 49.1Q345.0 49.1 345.6 51.8L349.4 69.0Q350.0 71.8 350.2 74.5L351.6 92.1Q351.9 94.9 349.1 94.4L331.5 91.0Q328.7 90.5 325.9 91.0L308.4 94.4Q305.6 94.9 305.2 92.2L303.1 74.9Q302.8 72.1 302.7 69.4L302.0 51.9Q301.8 49.2 304.4 49.2Z" fill="none" stroke="#6e767a" stroke-width="1.6" opacity="0.45"/>
  <path d="M304.4 49.2L320.8 49.2Q323.4 49.2 326.0 49.2L342.4 49.1Q345.0 49.1 345.6 51.8L349.4 69.0Q350.0 71.8 350.2 74.5L351.6 92.1Q351.9 94.9 349.1 94.4L331.5 91.0Q328.7 90.5 325.9 91.0L308.4 94.4Q305.6 94.9 305.2 92.2L303.1 74.9Q302.8 72.1 302.7 69.4L302.0 51.9Q301.8 49.2 304.4 49.2Z" fill="none" stroke="#f2f4f5" stroke-width="0.9" opacity="0.6"/>
  <path d="M328.3 87.6Q335.7 80.9 346.4 71.7" fill="none" stroke="#9aa2a6" stroke-width="0.8" opacity="0.49"/>
  <path d="M350.2 50.2L369.0 56.2Q372.0 57.1 375.1 57.2L394.9 57.3Q398.0 57.3 398.4 59.6L401.3 73.9Q401.8 76.2 401.3 78.4L398.5 92.8Q398.0 95.0 395.4 94.6L378.7 92.0Q376.0 91.6 373.4 92.0L356.7 94.6Q354.1 95.0 353.8 92.2L352.4 74.7Q352.2 71.9 351.6 69.2L347.8 51.9Q347.2 49.2 350.2 50.2Z" fill="#e0e3e4"/>
  <path d="M350.2 50.2L369.0 56.2Q372.0 57.1 375.1 57.2L394.9 57.3Q398.0 57.3 398.4 59.6L401.3 73.9Q401.8 76.2 401.3 78.4L398.5 92.8Q398.0 95.0 395.4 94.6L378.7 92.0Q376.0 91.6 373.4 92.0L356.7 94.6Q354.1 95.0 353.8 92.2L352.4 74.7Q352.2 71.9 351.6 69.2L347.8 51.9Q347.2 49.2 350.2 50.2Z" fill="url(#fsShade)"/>
  <path d="M350.2 50.2L369.0 56.2Q372.0 57.1 375.1 57.2L394.9 57.3Q398.0 57.3 398.4 59.6L401.3 73.9Q401.8 76.2 401.3 78.4L398.5 92.8Q398.0 95.0 395.4 94.6L378.7 92.0Q376.0 91.6 373.4 92.0L356.7 94.6Q354.1 95.0 353.8 92.2L352.4 74.7Q352.2 71.9 351.6 69.2L347.8 51.9Q347.2 49.2 350.2 50.2Z" fill="none" stroke="#6e767a" stroke-width="1.6" opacity="0.45"/>
  <path d="M350.2 50.2L369.0 56.2Q372.0 57.1 375.1 57.2L394.9 57.3Q398.0 57.3 398.4 59.6L401.3 73.9Q401.8 76.2 401.3 78.4L398.5 92.8Q398.0 95.0 395.4 94.6L378.7 92.0Q376.0 91.6 373.4 92.0L356.7 94.6Q354.1 95.0 353.8 92.2L352.4 74.7Q352.2 71.9 351.6 69.2L347.8 51.9Q347.2 49.2 350.2 50.2Z" fill="none" stroke="#f2f4f5" stroke-width="0.9" opacity="0.6"/>
  <path d="M351.4 52.9Q351.3 70.8 357.2 91.9" fill="none" stroke="#9aa2a6" stroke-width="0.8" opacity="0.39"/>
  <path d="M404.0 57.8L426.1 60.7Q429.6 61.2 433.1 60.7L455.2 57.7Q458.7 57.3 458.7 59.6L458.7 73.9Q458.7 76.2 458.7 78.5L458.7 92.8Q458.7 95.1 455.2 94.4L433.1 90.3Q429.6 89.6 426.1 90.3L404.0 94.4Q400.5 95.1 400.9 92.8L403.8 78.5Q404.3 76.2 403.8 74.0L400.9 59.7Q400.5 57.4 404.0 57.8Z" fill="#c6cbce"/>
  <path d="M404.0 57.8L426.1 60.7Q429.6 61.2 433.1 60.7L455.2 57.7Q458.7 57.3 458.7 59.6L458.7 73.9Q458.7 76.2 458.7 78.5L458.7 92.8Q458.7 95.1 455.2 94.4L433.1 90.3Q429.6 89.6 426.1 90.3L404.0 94.4Q400.5 95.1 400.9 92.8L403.8 78.5Q404.3 76.2 403.8 74.0L400.9 59.7Q400.5 57.4 404.0 57.8Z" fill="url(#fsShade)"/>
  <path d="M404.0 57.8L426.1 60.7Q429.6 61.2 433.1 60.7L455.2 57.7Q458.7 57.3 458.7 59.6L458.7 73.9Q458.7 76.2 458.7 78.5L458.7 92.8Q458.7 95.1 455.2 94.4L433.1 90.3Q429.6 89.6 426.1 90.3L404.0 94.4Q400.5 95.1 400.9 92.8L403.8 78.5Q404.3 76.2 403.8 74.0L400.9 59.7Q400.5 57.4 404.0 57.8Z" fill="none" stroke="#6e767a" stroke-width="1.6" opacity="0.45"/>
  <path d="M404.0 57.8L426.1 60.7Q429.6 61.2 433.1 60.7L455.2 57.7Q458.7 57.3 458.7 59.6L458.7 73.9Q458.7 76.2 458.7 78.5L458.7 92.8Q458.7 95.1 455.2 94.4L433.1 90.3Q429.6 89.6 426.1 90.3L404.0 94.4Q400.5 95.1 400.9 92.8L403.8 78.5Q404.3 76.2 403.8 74.0L400.9 59.7Q400.5 57.4 404.0 57.8Z" fill="none" stroke="#f2f4f5" stroke-width="0.9" opacity="0.6"/>
  <path d="M404.9 92.2Q399.1 75.1 404.9 60.2" fill="none" stroke="#9aa2a6" stroke-width="0.8" opacity="0.47"/>
  <path d="M429.6 63.4Q410.1 62.6 404.9 60.2" fill="none" stroke="#9aa2a6" stroke-width="0.8" opacity="0.41"/>
  <rect width="460" height="96" filter="url(#fsGrain)"/>
</svg>